 <svg  version="1.0" xmlns="http://www.w3.org/2000/svg"  width="900.000000pt" height="900.000000pt" viewBox="0 0 900.000000 900.000000"  preserveAspectRatio="xMidYMid meet">  <g transform="translate(0.000000,900.000000) scale(0.100000,-0.100000)" fill="#f5f5f5" stroke="none"> <path d="M2183 6919 c-84 -26 -170 -105 -215 -197 l-33 -67 -7 -740 c-10 -1141 0 -2947 17 -3010 26 -94 132 -211 220 -242 84 -30 152 -34 611 -36 449 -2 473 -3 493 -21 12 -11 21 -30 21 -43 0 -41 40 -173 70 -234 17 -32 60 -91 97 -129 53 -56 84 -80 152 -113 78 -38 94 -42 177 -45 60 -3 150 5 270 22 177 25 280 36 544 57 156 13 150 12 460 29 282 15 1138 8 1210 -11 25 -6 119 -12 210 -13 161 -1 166 0 212 25 166 94 262 251 274 452 10 144 -36 284 -128 397 -63 78 -71 96 -64 144 7 41 51 201 86 306 9 30 30 98 45 150 15 52 35 120 45 150 10 30 30 98 45 150 27 95 97 327 135 450 27 86 96 317 121 405 11 39 36 122 55 185 19 63 39 129 43 145 5 17 23 75 40 130 94 306 100 359 52 460 -28 60 -105 141 -160 170 -42 21 -161 35 -300 35 -104 0 -133 3 -145 16 -9 8 -16 16 -17 17 0 1 -4 77 -9 168 -7 149 -11 173 -34 222 -24 49 -100 135 -151 170 -11 8 -42 22 -70 33 -48 18 -99 19 -1205 21 -635 2 -1165 5 -1177 8 -30 7 -69 50 -100 110 -74 144 -174 242 -281 275 -61 19 -95 20 -806 19 -709 0 -744 -1 -803 -20z m1608 -113 c69 -31 118 -83 161 -171 72 -145 93 -177 127 -201 l36 -24 1196 0 c1173 0 1197 0 1241 -20 25 -11 62 -38 83 -61 67 -74 70 -87 70 -343 l0 -229 236 2 c130 1 252 -1 272 -4 46 -9 112 -65 137 -118 21 -42 27 -135 11 -153 -10 -10 -51 -140 -51 -161 0 -7 -4 -21 -9 -31 -10 -18 -25 -67 -61 -197 -12 -44 -26 -88 -31 -97 -5 -10 -13 -34 -18 -55 -10 -41 -63 -219 -80 -268 -5 -16 -17 -57 -26 -90 -22 -83 -45 -154 -61 -192 -8 -17 -14 -38 -14 -48 0 -16 -9 -47 -61 -208 -16 -48 -29 -94 -29 -103 0 -9 -14 -57 -30 -107 -57 -171 -60 -182 -60 -199 0 -10 -6 -32 -14 -50 -13 -32 -21 -57 -61 -193 -10 -33 -24 -78 -31 -100 -7 -22 -20 -67 -29 -100 -10 -33 -28 -91 -42 -130 -42 -117 -42 -122 6 -141 44 -18 124 -99 153 -156 64 -130 65 -321 1 -443 -27 -51 -81 -112 -131 -147 l-47 -33 -123 2 c-67 1 -148 7 -180 13 -164 30 -1095 37 -1437 9 -66 -5 -190 -13 -275 -19 -85 -5 -191 -14 -235 -19 -44 -6 -127 -15 -185 -21 -172 -16 -273 -29 -310 -40 -119 -34 -257 10 -355 114 -57 60 -71 82 -111 170 -21 47 -25 228 -5 264 6 12 9 27 6 33 -5 7 -195 9 -584 8 -540 -1 -580 0 -631 17 -63 22 -142 94 -155 140 -4 16 -10 850 -12 1854 -4 1445 -2 1837 8 1885 10 48 21 67 56 103 86 86 30 80 879 81 l752 1 53 -24z"/> <path d="M2225 6717 c-49 -28 -66 -46 -75 -78 -6 -21 -10 -658 -10 -1707 0 -1121 -4 -1713 -11 -1792 -13 -140 -2 -182 25 -104 18 54 74 258 85 315 4 19 11 42 16 49 5 7 12 30 16 49 4 20 15 61 24 91 9 30 23 75 30 100 7 25 25 84 39 133 l26 87 0 1099 c0 1051 1 1099 18 1114 21 19 67 23 77 7 5 -8 5 -848 0 -1795 0 -49 4 -91 9 -93 11 -4 31 56 47 137 6 29 21 85 35 125 l24 71 -1 819 c0 671 2 820 13 827 7 5 817 9 1800 9 l1788 0 16 -25 c12 -18 15 -42 13 -92 l-4 -68 118 -3 c96 -2 119 -6 124 -18 3 -9 6 -62 7 -118 l1 -101 55 -3 c30 -1 60 1 66 5 8 6 10 73 5 238 -7 252 -11 272 -69 298 -20 9 -323 13 -1232 17 l-1205 5 -41 22 c-42 22 -104 80 -104 96 0 5 -19 42 -43 81 -24 39 -46 82 -50 96 -9 37 -56 85 -101 104 -34 14 -119 16 -775 15 -535 -1 -741 -4 -756 -12z m1450 -117 c25 -5 50 -20 67 -41 42 -50 140 -229 134 -245 -5 -12 -92 -14 -591 -14 -399 0 -600 -4 -630 -11 -27 -7 -63 -28 -90 -51 -33 -29 -57 -41 -88 -45 -47 -6 -91 -35 -155 -100 -23 -24 -47 -41 -52 -38 -14 8 -13 480 0 505 27 50 20 49 715 49 359 0 668 -4 690 -9z m2771 -433 c18 -16 25 -29 21 -41 -9 -23 -85 -12 -110 17 -18 20 -18 22 -1 34 27 20 60 16 90 -10z"/> <path d="M2688 5473 c-2 -335 -2 -612 0 -616 8 -16 32 16 32 42 0 15 6 47 14 72 52 169 49 136 48 575 -2 387 -1 412 16 427 17 16 148 17 1678 19 l1659 3 3 43 3 42 -1724 0 -1725 0 -4 -607z"/> <path d="M2878 5885 c-8 -30 -2 -380 7 -383 5 -2 20 30 33 70 23 76 44 106 108 155 l37 28 1656 2 1656 3 3 67 3 68 -1750 0 c-1159 0 -1752 -3 -1753 -10z"/> <path d="M3072 5644 c-37 -26 -82 -95 -82 -125 0 -15 -4 -30 -9 -34 -5 -3 -12 -20 -16 -38 -4 -17 -12 -50 -20 -72 -7 -22 -20 -67 -29 -100 -17 -60 -32 -114 -63 -222 -15 -53 -50 -164 -88 -284 -8 -26 -15 -55 -15 -65 0 -11 -7 -28 -15 -38 -8 -11 -15 -28 -15 -39 0 -11 -6 -40 -14 -66 -42 -133 -75 -242 -91 -296 -9 -33 -21 -73 -26 -90 -6 -16 -19 -59 -30 -95 -10 -36 -25 -85 -33 -110 -7 -25 -21 -70 -30 -100 -9 -30 -23 -77 -31 -103 -8 -26 -15 -56 -15 -67 0 -10 -4 -21 -9 -25 -5 -3 -12 -20 -16 -38 -4 -17 -12 -50 -20 -72 -7 -22 -21 -69 -30 -105 -10 -36 -24 -79 -31 -97 -8 -17 -14 -37 -14 -44 0 -15 -25 -100 -57 -194 -47 -136 -53 -167 -41 -208 7 -24 22 -44 43 -57 31 -19 52 -20 612 -20 549 0 581 1 596 18 10 10 17 23 17 29 0 17 89 92 134 114 69 33 140 40 251 25 55 -8 138 -19 185 -26 47 -6 105 -16 130 -21 43 -10 73 -14 325 -39 61 -6 151 -15 200 -21 137 -17 797 -23 945 -9 69 6 170 15 225 20 124 11 213 26 410 66 39 8 95 19 125 25 96 18 87 0 176 314 9 33 23 74 31 92 7 17 13 37 13 44 0 14 19 79 60 209 15 47 35 112 44 145 9 33 30 105 47 160 17 55 38 125 47 155 8 30 21 69 29 87 7 17 13 36 13 43 0 7 6 33 14 59 87 277 106 342 106 356 0 7 7 26 15 41 8 16 15 37 15 46 0 9 4 27 9 40 5 13 19 57 32 98 12 41 27 93 34 115 7 22 21 67 30 100 10 33 24 75 31 93 8 18 14 44 14 57 0 13 4 26 9 29 5 3 12 23 16 43 3 21 20 77 36 125 29 84 30 88 14 120 -10 18 -27 41 -39 50 -20 17 -144 18 -2076 18 -1872 0 -2058 -1 -2078 -16z m4040 -113 c21 -18 21 -21 10 -84 -7 -36 -28 -114 -48 -174 -19 -59 -46 -146 -59 -193 -13 -47 -38 -130 -55 -185 -18 -55 -42 -136 -55 -180 -13 -44 -33 -111 -45 -150 -12 -38 -32 -106 -45 -150 -13 -44 -33 -111 -45 -150 -12 -38 -30 -99 -40 -135 -10 -36 -31 -103 -45 -150 -15 -47 -35 -114 -45 -150 -10 -36 -30 -101 -44 -145 -14 -44 -32 -105 -41 -135 -70 -230 -120 -371 -139 -389 -24 -22 -96 -48 -159 -57 -23 -3 -67 -12 -97 -19 -97 -24 -418 -56 -655 -65 -257 -10 -649 1 -871 25 -77 9 -168 18 -204 21 -36 3 -159 21 -275 41 -347 58 -493 49 -610 -37 -22 -16 -65 -46 -95 -67 l-55 -38 -494 -3 c-452 -2 -495 -1 -512 14 -25 22 -25 77 0 146 10 29 27 82 36 118 20 74 43 150 79 265 14 44 26 88 26 97 0 10 6 32 14 50 8 18 35 101 60 183 25 83 59 193 75 245 16 52 34 113 40 135 16 60 77 262 127 420 24 77 64 212 89 300 42 149 79 272 143 470 29 93 63 132 120 138 20 2 904 4 1964 5 1843 1 1928 0 1950 -17z"/> <path d="M6035 5259 c-91 -16 -189 -40 -270 -67 -109 -35 -273 -107 -299 -131 -12 -10 -66 -45 -121 -76 -55 -32 -137 -85 -183 -119 -45 -33 -115 -85 -155 -115 -104 -77 -176 -151 -272 -276 -64 -84 -87 -123 -99 -166 -20 -78 -50 -133 -93 -171 -20 -18 -73 -70 -117 -114 -45 -45 -109 -98 -143 -118 -35 -20 -79 -56 -99 -81 -40 -47 -110 -217 -143 -347 -24 -93 -18 -119 42 -191 45 -54 82 -77 126 -77 27 0 131 30 201 58 14 5 59 20 100 33 64 19 83 31 131 79 31 31 68 78 82 106 18 35 47 66 101 109 42 33 97 85 121 116 49 63 58 67 200 104 191 50 223 66 376 197 47 40 121 102 163 137 102 84 306 302 364 387 132 196 258 499 239 575 -7 29 -66 100 -105 127 -35 25 -85 32 -147 21z m145 -121 c11 -12 20 -25 20 -30 0 -7 -25 -68 -41 -100 -5 -10 -9 -23 -9 -29 0 -14 -19 -55 -87 -194 -64 -130 -88 -173 -114 -201 -10 -11 -19 -24 -19 -29 0 -4 -16 -27 -35 -51 -25 -30 -49 -47 -85 -59 -49 -16 -60 -31 -40 -51 13 -13 -11 -39 -105 -114 -38 -30 -76 -62 -85 -70 -9 -8 -58 -51 -110 -95 -52 -43 -106 -90 -120 -103 -30 -29 -75 -48 -155 -66 -33 -8 -87 -21 -120 -29 -33 -9 -96 -24 -140 -34 l-80 -19 0 -58 c0 -55 -2 -60 -39 -92 -34 -29 -47 -34 -92 -34 -49 0 -52 -2 -57 -27 -7 -39 -40 -124 -68 -174 -25 -42 -53 -58 -136 -74 -19 -3 -43 -10 -52 -14 -9 -5 -41 -16 -71 -25 -30 -10 -79 -27 -107 -38 -52 -21 -53 -21 -74 -2 -34 30 -41 61 -24 97 8 18 25 66 39 107 13 41 29 86 34 100 6 14 18 51 27 84 16 54 21 60 64 78 25 11 66 29 91 40 25 12 59 24 75 27 24 5 31 12 33 36 5 56 12 75 43 110 29 33 35 35 90 35 64 0 60 -5 73 80 3 19 12 58 21 85 8 28 20 70 26 95 24 100 21 95 69 100 44 5 45 6 55 52 12 58 43 100 98 135 23 14 55 39 71 55 17 15 34 28 38 28 5 0 26 13 46 29 154 119 246 182 261 178 9 -3 23 -8 32 -12 13 -5 22 5 40 40 20 40 33 51 93 81 68 34 118 55 181 74 17 6 39 14 50 19 40 19 92 34 165 47 41 8 93 18 115 23 67 15 93 12 115 -11z"/> <path d="M5995 5045 c-22 -7 -87 -28 -145 -46 -118 -37 -148 -48 -237 -91 -54 -26 -69 -40 -113 -104 -27 -41 -50 -77 -50 -80 0 -3 -9 -19 -21 -36 -16 -22 -28 -28 -48 -26 -21 2 -27 9 -29 36 -2 21 -9 32 -19 32 -9 0 -32 -15 -53 -32 -21 -18 -98 -76 -171 -130 l-134 -96 -19 -64 c-10 -34 -25 -80 -32 -101 -8 -20 -14 -46 -14 -57 0 -25 -33 -42 -64 -34 -22 5 -25 1 -40 -53 -9 -32 -23 -73 -31 -91 -19 -42 -19 -72 0 -72 8 0 15 4 15 8 0 8 168 178 231 234 15 12 44 39 65 58 79 71 181 158 264 225 129 103 171 137 209 171 20 16 65 52 101 79 36 28 82 64 103 82 44 39 61 41 83 8 23 -35 11 -57 -64 -113 -37 -28 -80 -61 -97 -75 -16 -13 -67 -54 -111 -90 -45 -36 -90 -72 -100 -81 -53 -46 -135 -115 -179 -151 -27 -22 -74 -62 -105 -90 -96 -86 -182 -161 -265 -229 -44 -37 -83 -75 -87 -85 -6 -18 -4 -18 35 -5 23 7 67 22 97 34 30 12 71 25 90 30 36 8 106 25 172 41 21 5 52 23 70 40 93 86 219 192 273 229 45 31 51 50 16 50 -19 0 -51 29 -51 47 0 20 47 51 105 66 119 33 159 53 188 93 65 93 157 255 204 364 8 19 22 48 30 63 28 54 6 67 -72 42z"/> <path d="M4588 3925 c-11 -24 -7 -30 52 -90 82 -83 130 -88 130 -16 0 10 -25 43 -55 74 -43 44 -63 57 -86 57 -22 0 -32 -6 -41 -25z"/> <path d="M4510 3786 c-14 -8 -61 -30 -105 -50 -44 -20 -83 -44 -86 -53 -4 -10 -21 -53 -39 -95 -18 -42 -29 -82 -25 -89 11 -16 121 102 137 147 11 31 16 34 50 34 32 0 40 -4 49 -26 14 -38 2 -63 -39 -82 -41 -18 -152 -109 -152 -123 0 -11 37 -12 44 -1 3 4 43 21 90 36 l84 28 32 77 c18 42 38 88 46 103 20 37 17 60 -10 86 -27 25 -41 27 -76 8z"/> <path d="M6515 2947 c-44 -18 -243 -62 -400 -87 -286 -47 -745 -67 -1124 -51 -365 15 -681 48 -835 85 -84 21 -104 11 -64 -31 35 -38 59 -86 80 -163 22 -81 22 -120 3 -205 -17 -72 -35 -110 -77 -166 -44 -56 -34 -73 29 -48 37 15 232 38 409 49 78 4 175 13 215 19 87 12 589 31 834 31 259 0 679 -19 779 -35 49 -8 126 -15 170 -15 l80 0 57 58 c67 69 92 137 92 247 0 138 -59 255 -155 305 -45 23 -52 24 -93 7z m78 -160 c39 -49 51 -82 50 -147 0 -80 -20 -129 -65 -164 -42 -31 -64 -32 -256 -11 -375 41 -1247 39 -1632 -5 -198 -22 -348 -30 -375 -20 l-27 10 4 135 c2 86 7 138 15 146 9 9 62 7 230 -10 337 -32 673 -43 977 -31 144 6 275 12 291 15 17 3 91 12 165 20 74 8 169 21 210 29 41 8 116 21 165 30 50 9 104 20 120 26 45 14 107 3 128 -23z"/> <path d="M3725 2931 c-84 -22 -150 -82 -195 -178 -26 -55 -30 -74 -30 -152 0 -100 17 -151 78 -234 40 -56 88 -89 158 -110 47 -14 108 -13 129 3 6 4 22 10 36 13 63 15 144 118 178 228 15 49 14 156 -1 166 -7 4 -67 6 -133 4 -146 -3 -151 -6 -146 -93 7 -130 3 -141 -49 -136 -36 4 -50 41 -50 131 0 88 16 135 59 168 24 19 37 21 155 17 147 -3 154 0 112 61 -49 70 -120 110 -209 116 -34 2 -75 1 -92 -4z"/> </g> </svg> 