<?xml version="1.0" standalone="no"?>
<!DOCTYPE svg PUBLIC "-//W3C//DTD SVG 20010904//EN"
 "http://www.w3.org/TR/2001/REC-SVG-20010904/DTD/svg10.dtd">
<svg version="1.0" xmlns="http://www.w3.org/2000/svg"
 width="300.000000pt" height="300.000000pt" viewBox="0 0 300.000000 300.000000"
 preserveAspectRatio="xMidYMid meet">
<metadata>
Created by potrace 1.10, written by Peter Selinger 2001-2011
</metadata>
<g transform="translate(0.000000,300.000000) scale(0.100000,-0.100000)"
fill="#000000" stroke="none">
<path d="M301 1513 l-1 -1213 1200 0 1200 0 0 1200 0 1200 -1194 0 c-946 0
-1195 3 -1199 13 -3 6 -6 -534 -6 -1200z m607 1160 c-15 -2 -42 -2 -60 0 -18
2 -6 4 27 4 33 0 48 -2 33 -4z m1753 -1174 c-1 -634 -3 -1154 -5 -1156 -3 -4
-2123 -7 -2271 -4 -29 1 -45 5 -37 9 18 12 13 2268 -5 2264 -7 -1 -13 5 -13
13 0 13 136 15 1160 15 877 0 1160 3 1160 12 0 6 3 9 6 6 3 -4 5 -525 5 -1159z"/>
<path d="M2626 2621 c-8 -13 -3 -61 6 -61 4 0 8 16 8 35 0 35 -4 43 -14 26z"/>
<path d="M462 2538 c4 -10 95 -14 403 -15 219 -2 395 0 391 4 -3 4 -68 8 -144
9 -75 2 -141 3 -147 4 -5 1 -114 -2 -241 -5 -164 -5 -234 -4 -238 4 -10 15
-29 14 -24 -1z"/>
<path d="M2495 2539 c-16 -5 -67 -8 -112 -7 -45 1 -85 -1 -89 -5 -4 -4 42 -7
102 -7 l110 0 -1 -1010 0 -1010 -935 0 c-514 -1 -970 -3 -1012 -4 l-77 -4 -4
62 -3 61 -2 -67 -2 -68 408 0 c1125 -1 1636 1 1639 4 2 1 3 463 3 1024 0 668
4 1022 10 1022 6 0 10 5 10 10 0 12 -4 11 -45 -1z"/>
<path d="M2623 2521 c4 -20 3 -30 -3 -26 -6 4 -9 -11 -9 -37 1 -24 4 -33 6
-20 2 12 8 22 12 22 4 0 8 13 9 28 0 15 2 34 4 41 2 7 -3 16 -11 19 -11 4 -13
-2 -8 -27z"/>
<path d="M1285 2530 c-3 -5 65 -9 150 -9 85 -1 155 2 155 6 0 11 -299 13 -305
3z"/>
<path d="M1650 2529 c0 -5 21 -9 47 -9 25 0 44 2 42 4 -10 8 -89 13 -89 5z"/>
<path d="M1833 2528 c-2 -5 98 -8 223 -8 125 0 224 3 220 7 -9 10 -437 10
-443 1z"/>
<path d="M1288 2493 c45 -2 119 -2 165 0 45 1 8 3 -83 3 -91 0 -128 -2 -82 -3z"/>
<path d="M2408 2493 c18 -2 45 -2 60 0 15 2 0 4 -33 4 -33 0 -45 -2 -27 -4z"/>
<path d="M2451 2467 c-10 -13 -8 -154 3 -164 2 -3 6 36 8 86 2 50 2 91 2 91
-1 0 -6 -6 -13 -13z"/>
<path d="M2623 2298 c-14 -29 -11 -130 3 -135 7 -2 11 24 12 77 0 44 0 80 -2
80 -1 0 -7 -10 -13 -22z"/>
<path d="M1022 2273 c-8 -13 -21 -23 -28 -23 -10 0 -13 -7 -8 -25 7 -29 8 -38
6 -77 -1 -18 -8 -28 -17 -28 -19 0 -19 -10 0 -24 17 -12 17 -12 11 -140 -3
-53 -9 -92 -16 -96 -9 -6 -9 -13 -1 -28 13 -24 15 -62 4 -62 -5 0 -8 -39 -9
-86 -1 -57 -5 -89 -14 -94 -7 -4 -8 -10 -2 -14 6 -3 6 -22 2 -48 -5 -23 -6
-48 -3 -55 3 -7 0 -20 -6 -27 -7 -8 -8 -17 -3 -20 5 -3 7 -31 4 -63 -4 -48 -9
-63 -34 -86 -16 -15 -34 -25 -39 -22 -5 4 -9 1 -9 -6 0 -7 -6 -20 -14 -28 -22
-26 -29 -71 -11 -71 8 0 15 -7 15 -16 0 -31 44 -106 71 -120 31 -15 40 -34 33
-66 -8 -41 -4 -109 6 -103 4 3 19 -6 33 -19 16 -15 27 -20 30 -13 6 18 241 13
270 -6 30 -19 278 -29 382 -15 17 2 36 -1 44 -6 11 -8 13 -8 8 1 -5 8 11 10
60 7 61 -3 76 -10 86 -38 4 -13 47 12 47 28 0 8 6 16 14 19 10 4 14 20 12 56
-1 28 -5 54 -9 58 -13 12 -7 33 8 33 13 0 14 7 8 38 -11 53 -8 171 6 185 12
12 15 31 4 24 -10 -6 0 194 10 210 4 6 3 14 -3 18 -12 8 -13 89 -1 131 5 17 5
37 1 44 -4 6 -1 25 7 41 14 29 21 198 8 218 -4 7 0 8 11 4 14 -5 15 -1 9 25
-3 17 -1 40 5 51 8 16 8 21 -1 21 -17 0 -2 51 23 78 12 12 16 22 10 22 -6 0
-14 -4 -17 -10 -3 -5 -10 -10 -14 -10 -10 0 -8 51 2 67 4 6 -2 13 -13 16 -24
6 -27 43 -4 68 25 28 8 58 -44 80 -42 18 -54 19 -122 9 -41 -6 -79 -11 -85
-10 -35 2 -202 10 -262 12 -40 2 -73 5 -73 8 0 3 -84 5 -186 5 -183 0 -187 0
-202 -22z m495 -23 c94 -6 225 -8 290 -5 65 4 132 2 148 -3 36 -10 42 -39 7
-34 -22 3 -23 1 -16 -35 4 -21 13 -48 21 -60 12 -18 13 -52 8 -185 -3 -90 -10
-206 -15 -258 -5 -52 -12 -167 -15 -255 -3 -88 -10 -191 -15 -230 -16 -130
-22 -322 -10 -344 9 -17 8 -22 -5 -27 -8 -3 -15 -14 -15 -24 0 -11 -4 -22 -10
-25 -6 -4 -10 9 -10 31 l0 37 -137 -8 c-191 -12 -343 -8 -412 10 -39 10 -106
15 -199 15 -163 0 -150 -10 -153 122 l-3 88 -24 -16 c-29 -19 -31 -16 -63 66
-33 87 -31 99 21 130 l45 26 7 80 c7 77 34 418 45 559 2 39 8 131 12 206 5 75
11 140 14 145 6 11 253 8 484 -6z"/>
<path d="M1055 2228 c-2 -7 -9 -85 -14 -173 -19 -296 -32 -479 -46 -625 -7
-80 -12 -146 -10 -148 2 -2 31 11 64 28 l61 33 0 76 c1 139 38 673 48 683 14
14 444 4 537 -12 39 -6 84 -13 101 -16 l31 -4 1 -108 c1 -115 -21 -463 -40
-627 -6 -55 -14 -161 -17 -235 -3 -74 -10 -141 -14 -147 -11 -17 -60 -16 -177
2 -53 8 -168 15 -261 15 -193 1 -209 6 -191 60 19 53 16 90 -7 90 -11 0 -23
-4 -26 -10 -3 -5 -15 -10 -25 -10 -11 0 -29 -5 -42 -10 -22 -10 -23 -16 -21
-103 l2 -92 28 -6 c52 -12 63 -10 63 11 0 24 4 25 37 3 28 -18 51 -20 323 -27
80 -2 156 -8 170 -13 14 -5 77 -7 140 -5 l115 4 3 120 c2 66 8 146 13 177 14
82 40 579 41 776 1 132 -2 181 -15 219 -9 27 -14 53 -11 58 8 13 -200 10 -213
-3 -9 -9 -27 -9 -70 -1 -139 27 -363 36 -478 20 -5 0 -29 2 -52 6 -32 6 -44 4
-48 -6z m46 -89 c-3 -93 -18 -229 -26 -237 -13 -13 -14 10 -5 79 5 41 10 114
10 162 0 65 3 88 12 85 9 -3 12 -29 9 -89z m301 58 c10 -11 20 -12 41 -4 19 6
32 6 38 0 6 -6 30 -8 54 -5 24 2 52 1 62 -3 10 -4 34 -8 53 -9 19 -1 41 -5 48
-9 7 -5 12 -4 12 3 0 7 14 11 33 9 17 -1 40 2 49 6 10 4 35 3 55 -2 36 -8 39
-12 53 -67 14 -55 14 -59 -4 -72 -23 -16 -43 -4 -48 29 -3 20 -14 24 -98 37
-52 8 -100 18 -107 23 -6 4 -18 4 -26 1 -8 -3 -18 -1 -22 5 -4 8 -12 8 -26 0
-11 -5 -30 -7 -42 -3 -12 4 -71 6 -132 5 -127 -3 -187 -4 -197 -2 -5 1 -8 10
-8 20 0 11 -5 23 -10 26 -24 15 5 22 104 24 79 1 108 -2 118 -12z m-262 -49
c0 -38 -18 -90 -21 -63 -3 27 -4 91 -1 98 10 21 22 2 22 -35z m763 -200 c0
-23 -5 -44 -11 -46 -8 -2 -12 13 -12 47 0 28 -4 51 -10 51 -5 0 -10 5 -10 11
0 6 9 4 22 -5 16 -11 21 -25 21 -58z m-16 -75 c20 -13 24 -23 21 -50 -2 -18 0
-34 4 -35 5 -2 4 -32 0 -68 -5 -35 -6 -77 -1 -92 4 -16 4 -30 -2 -34 -5 -3 -7
-9 -4 -14 3 -4 -2 -13 -10 -20 -12 -10 -15 -10 -15 1 0 10 -2 11 -12 0 -11
-10 -10 -15 4 -25 27 -20 13 -122 -19 -143 -19 -12 -27 -13 -36 -4 -9 9 -9 14
0 19 6 4 13 18 16 32 l4 25 2 -27 c2 -56 16 -33 19 33 3 55 1 69 -11 69 -20 0
-32 51 -16 61 8 5 12 26 10 59 -1 28 3 57 9 65 6 7 7 15 3 18 -4 3 -6 29 -4
57 2 35 6 48 12 39 7 -11 9 -11 9 3 0 9 -4 20 -10 23 -5 3 -9 21 -9 38 1 24 3
26 6 9 2 -12 16 -30 30 -39z m-780 -60 c-5 -32 -8 -76 -8 -98 2 -38 1 -39 -13
-20 -9 11 -16 15 -16 9 0 -6 7 -17 15 -24 13 -11 14 -27 9 -89 -4 -42 -7 -100
-6 -128 0 -29 -4 -53 -9 -53 -5 0 -9 -7 -9 -16 0 -8 5 -12 10 -9 18 11 11 -8
-12 -32 -40 -43 -47 -31 -43 70 3 50 6 139 9 197 2 58 5 105 6 105 0 0 3 17 5
38 2 20 0 37 -6 37 -6 0 -6 8 1 20 6 12 10 30 8 42 -2 16 4 24 22 28 39 11 48
-9 37 -77z m738 -454 c-4 -5 1 -19 11 -30 17 -19 17 -20 -4 -39 -29 -27 -46
-26 -38 3 3 12 6 34 6 50 0 18 5 27 16 27 8 0 12 -5 9 -11z m41 -101 c-10 -33
-25 -254 -20 -275 8 -29 -46 -92 -78 -93 -36 0 -42 13 -18 43 16 21 20 45 24
148 7 163 8 174 26 174 12 0 15 -15 15 -75 0 -68 -2 -75 -19 -72 -18 3 -18 2
-2 -13 9 -9 16 -23 16 -31 0 -8 5 -14 10 -14 6 0 10 24 10 54 0 101 12 176 28
176 10 0 12 -6 8 -22z m-779 -227 c-5 -39 -2 -51 14 -64 21 -19 26 -41 7 -34
-7 2 -21 0 -32 -5 -13 -7 -21 -6 -28 3 -7 11 -11 11 -15 2 -11 -29 -18 -9 -20
57 -1 38 2 72 7 75 6 4 10 0 10 -7 1 -9 3 -8 10 2 5 9 18 16 31 17 20 2 21 -1
16 -46z m149 -90 c7 5 24 7 38 3 14 -3 81 -7 148 -9 153 -3 158 -4 158 -16 0
-6 9 -7 20 -4 12 4 27 2 35 -5 9 -7 15 -7 19 -1 7 11 36 4 36 -9 0 -10 -82 -7
-120 4 -40 11 -134 14 -147 4 -7 -6 -20 -5 -33 2 -17 9 -29 9 -51 0 -25 -11
-32 -10 -48 4 -12 11 -21 13 -25 7 -7 -10 -81 -9 -93 2 -3 4 -16 7 -27 7 -16
0 -18 3 -7 9 7 5 29 5 49 0 22 -5 41 -4 48 2z"/>
<path d="M1182 2077 c-12 -14 -55 -707 -45 -707 5 0 198 97 240 121 27 15 43
31 43 43 0 14 5 17 23 11 12 -3 57 -9 100 -12 l79 -6 -6 -31 c-12 -60 -49
-120 -81 -130 -36 -11 -241 -145 -287 -186 -17 -16 -41 -30 -52 -32 -23 -3
-34 -32 -35 -99 l-1 -47 203 -6 c111 -3 241 -9 290 -12 l87 -6 0 103 c0 57 5
122 10 144 17 68 51 556 48 687 l-3 123 -80 17 c-44 10 -132 20 -195 23 -317
14 -328 15 -338 2z m85 -33 c6 -17 23 -19 23 -1 0 9 27 12 103 11 56 -1 110
-5 120 -9 28 -12 19 -25 -13 -18 -17 3 -30 1 -30 -4 0 -6 -46 -10 -110 -10
-60 0 -110 4 -110 9 0 4 -12 3 -26 -3 -33 -12 -37 -8 -20 17 17 23 55 29 63 8z
m413 -39 c10 -12 10 -16 -1 -20 -26 -10 -474 -23 -483 -14 -16 14 11 17 228
23 124 3 213 9 220 16 14 14 21 13 36 -5z m55 -1 c-19 -15 -18 -16 13 -9 31 6
33 5 27 -18 -4 -14 -2 -28 4 -32 6 -3 8 -11 5 -17 -4 -6 -8 -45 -10 -87 -1
-42 -5 -119 -9 -171 -4 -52 -7 -107 -6 -122 1 -15 -3 -29 -8 -32 -6 -4 -6 -19
0 -38 7 -25 5 -36 -8 -50 -10 -11 -12 -18 -5 -18 13 0 17 -82 5 -94 -4 -4 -8
-24 -9 -46 -1 -21 -6 -45 -10 -52 -5 -7 -9 -52 -10 -99 -2 -94 -8 -114 -32
-104 -8 3 -18 1 -22 -5 -5 -9 -19 -8 -51 1 -27 7 -117 12 -230 13 l-186 1 -1
29 c0 15 5 35 11 43 28 35 119 117 144 130 14 7 48 29 74 48 31 22 49 30 53
22 2 -7 5 -5 5 4 1 18 21 29 52 29 11 0 22 7 25 15 3 8 14 17 24 20 10 3 21
17 24 30 3 13 15 27 27 30 14 5 17 10 11 18 -15 19 -2 77 17 78 10 0 7 4 -9
11 -14 5 -33 14 -43 20 -10 5 -32 6 -48 3 -24 -5 -29 -3 -29 11 0 14 -3 15
-12 6 -7 -7 -17 -8 -28 -2 -9 5 -35 6 -58 3 -30 -4 -43 -11 -48 -26 -10 -31
-26 -44 -65 -52 -44 -9 -54 -16 -39 -25 15 -9 -87 -53 -107 -45 -14 5 -13 8 2
25 11 13 14 20 6 20 -8 0 -10 7 -6 20 3 11 2 20 -3 20 -10 0 -8 132 3 149 4 7
4 19 1 27 -3 8 -1 25 4 39 5 14 6 25 1 25 -10 0 -2 109 10 132 6 11 5 18 -4
21 -9 3 -8 8 3 20 10 10 43 17 95 20 68 5 77 3 62 -8 -15 -11 -6 -14 70 -18
135 -8 137 -8 122 9 -17 21 -11 23 65 28 68 5 106 23 106 53 0 7 10 13 23 13
22 -1 22 -1 2 -16z"/>
<path d="M1318 1888 c-21 -6 -21 -6 7 -9 156 -13 187 -13 223 2 31 13 25 14
-86 14 -66 0 -131 -3 -144 -7z"/>
<path d="M1284 1841 c3 -5 22 -9 42 -9 25 0 33 3 23 9 -18 11 -72 12 -65 0z"/>
<path d="M1291 1793 c15 -17 30 -17 55 2 18 13 16 14 -23 13 -35 -1 -41 -4
-32 -15z"/>
<path d="M1572 1718 c-8 -8 -60 -13 -145 -14 -73 -1 -144 -5 -156 -9 -30 -9
-24 -45 9 -62 14 -7 19 -13 11 -13 -11 0 -11 -3 -1 -15 11 -13 7 -15 -23 -15
-20 0 -40 -7 -48 -16 -11 -14 -10 -19 9 -34 15 -13 18 -20 10 -24 -7 -3 12 -2
42 1 61 6 80 17 80 44 0 21 -28 51 -41 44 -5 -4 -6 1 -3 9 7 18 20 21 29 6 4
-7 13 -6 27 1 11 6 32 8 46 5 20 -5 23 -4 12 4 -9 6 -10 10 -3 10 22 0 24 -18
3 -33 -11 -7 -17 -17 -14 -20 6 -6 37 8 65 31 9 7 53 14 106 16 95 4 150 24
139 53 -4 8 -6 18 -6 22 0 4 -24 7 -52 6 -29 -1 -60 1 -69 6 -9 5 -21 3 -27
-3z m145 -34 c6 -17 -40 -23 -220 -30 -165 -7 -241 -1 -235 17 2 7 63 11 168
10 91 0 185 4 210 8 55 11 72 9 77 -5z m-369 -116 c-3 -8 -28 -14 -66 -16 -76
-4 -84 15 -9 21 28 2 58 4 65 5 8 1 12 -4 10 -10z"/>
<path d="M1395 1474 c-33 -20 -103 -58 -155 -83 -52 -26 -120 -63 -150 -84
-30 -21 -71 -42 -90 -47 -19 -6 -50 -23 -68 -39 l-33 -28 19 -57 c10 -31 22
-59 25 -62 3 -4 21 3 39 14 18 11 80 39 137 63 65 27 141 69 205 114 56 39
118 81 139 94 20 12 37 24 37 26 0 2 -16 22 -35 45 -38 46 -43 60 -20 60 8 0
27 -23 43 -50 16 -30 33 -49 42 -48 14 3 67 95 59 102 -2 2 -33 6 -69 10 -62
6 -68 4 -125 -30z m40 -55 c17 -32 8 -59 -20 -59 -7 0 -16 -7 -19 -16 -5 -13
-9 -14 -20 -5 -12 10 -15 8 -18 -10 -2 -12 -12 -27 -23 -33 -11 -6 -33 -21
-48 -33 -16 -13 -35 -23 -43 -23 -8 0 -14 -5 -14 -11 0 -6 -6 -9 -12 -6 -7 2
-12 11 -10 18 5 18 -8 5 -22 -23 -6 -12 -26 -26 -46 -31 -19 -5 -39 -13 -44
-18 -15 -14 -38 -11 -31 4 4 6 -3 0 -15 -15 -12 -16 -29 -28 -39 -28 -9 0 -22
-5 -27 -10 -13 -13 -30 5 -35 36 -5 24 28 77 42 69 5 -4 12 1 15 9 3 9 14 16
24 16 10 0 23 7 31 16 8 9 23 14 39 12 19 -3 27 0 26 11 -1 8 13 22 29 30 17
9 32 19 33 24 2 4 10 7 19 7 8 0 28 9 44 21 16 11 33 18 38 15 5 -3 11 1 15 9
3 9 18 15 36 15 16 0 30 5 30 10 0 8 23 23 47 29 1 1 10 -13 18 -30z"/>
<path d="M469 2243 c-5 -28 -3 -93 4 -93 4 0 7 23 7 50 0 28 -2 50 -5 50 -3 0
-6 -3 -6 -7z"/>
<path d="M532 1890 c-2 -168 -3 -370 -3 -450 0 -80 1 -316 1 -525 l0 -380 48
5 47 5 -42 3 -43 3 -3 822 c-1 452 -4 685 -5 517z"/>
<path d="M2449 2118 c0 -35 -1 -81 -2 -103 -2 -22 1 -53 4 -70 4 -16 7 30 8
103 1 72 -1 132 -4 132 -3 0 -5 -28 -6 -62z"/>
<path d="M2626 1998 c2 -83 7 -154 9 -157 3 -2 5 66 5 152 0 94 -4 157 -10
157 -5 0 -7 -58 -4 -152z"/>
<path d="M2559 1978 c-2 -13 -1 -50 2 -83 6 -59 6 -59 7 23 2 80 -2 105 -9 60z"/>
<path d="M468 1963 c-2 -10 -1 -43 2 -73 l7 -55 2 73 c1 71 -2 89 -11 55z"/>
<path d="M2453 1812 c0 -57 4 -98 8 -90 4 8 4 54 -1 103 l-8 90 1 -103z"/>
<path d="M465 1810 c-3 -10 -3 -35 1 -55 4 -22 2 -41 -6 -50 -8 -10 -9 -15 -2
-15 7 0 13 -29 15 -72 1 -40 4 -9 5 70 1 78 0 142 -2 142 -3 0 -7 -9 -11 -20z"/>
<path d="M2627 1758 c-3 -40 -5 -171 -4 -291 1 -121 -1 -221 -5 -224 -5 -2 -8
-9 -8 -14 0 -6 4 -8 9 -4 6 3 12 -16 14 -42 2 -27 4 108 5 300 1 191 0 347 -2
347 -2 0 -6 -33 -9 -72z"/>
<path d="M2567 1803 c-10 -9 -9 -83 1 -83 5 0 12 90 6 90 0 0 -4 -3 -7 -7z"/>
<path d="M504 1660 c0 -63 1 -89 3 -57 2 31 2 83 0 115 -2 31 -3 5 -3 -58z"/>
<path d="M2567 1533 c-7 -22 -12 -226 -7 -268 2 -16 6 40 10 125 3 85 4 156 4
158 -1 2 -5 -5 -7 -15z"/>
<path d="M2459 1528 c0 -2 -2 -71 -3 -154 -1 -83 -6 -156 -10 -162 -4 -7 -2
-12 4 -12 7 0 9 -8 5 -21 -4 -13 -3 -19 3 -15 9 5 16 366 6 366 -2 0 -4 -1 -5
-2z"/>
<path d="M461 1473 c0 -16 4 -37 9 -48 6 -15 9 -8 9 28 1 26 -3 47 -9 47 -5 0
-10 -12 -9 -27z"/>
<path d="M504 1295 c0 -55 1 -76 3 -47 2 29 2 74 0 100 -2 26 -3 2 -3 -53z"/>
<path d="M465 1186 c0 -101 3 -188 8 -192 6 -6 13 173 7 201 -1 5 -1 47 -1 92
0 46 -3 83 -7 83 -4 0 -7 -83 -7 -184z"/>
<path d="M2625 1120 c-3 -5 -3 -21 1 -35 4 -15 2 -25 -5 -25 -6 0 -11 -12 -10
-27 1 -26 1 -27 7 -5 4 13 7 -58 7 -156 0 -99 -4 -178 -9 -175 -4 3 -5 -5 -1
-17 4 -13 11 -55 15 -94 5 -46 8 38 8 237 1 169 0 307 -3 307 -2 0 -6 -4 -10
-10z"/>
<path d="M474 835 c0 -60 1 -84 3 -52 2 32 2 81 0 110 -2 29 -3 3 -3 -58z"/>
<path d="M503 800 c0 -36 2 -50 4 -32 2 17 2 47 0 65 -2 17 -4 3 -4 -33z"/>
<path d="M2445 660 c-3 -11 -4 -29 0 -40 9 -27 -22 -70 -51 -70 -25 0 -40 15
-24 25 5 3 10 11 10 16 0 5 -11 -1 -23 -13 -20 -20 -36 -24 -92 -26 -120 -5
-84 -12 58 -12 l137 0 0 70 c0 72 -4 85 -15 50z"/>
<path d="M2567 653 c-10 -9 -9 -141 1 -146 4 -3 7 31 7 74 0 43 0 79 -1 79 0
0 -4 -3 -7 -7z"/>
<path d="M503 570 c0 -36 2 -50 4 -32 2 17 2 47 0 65 -2 17 -4 3 -4 -33z"/>
<path d="M1519 593 c-1 -7 -2 -19 -3 -25 -1 -17 -37 -23 -46 -8 -5 8 -9 7 -13
-4 -6 -14 19 -16 240 -16 135 0 243 3 239 7 -4 4 -93 7 -199 8 l-191 0 -13 25
c-7 14 -13 19 -14 13z"/>
<path d="M1384 564 c3 -9 6 -18 6 -20 0 -2 12 -4 28 -3 27 0 27 1 5 11 -13 6
-23 15 -23 20 0 4 -5 8 -11 8 -6 0 -8 -7 -5 -16z"/>
<path d="M755 549 l-90 -5 115 -2 c63 -1 126 -5 140 -8 17 -5 22 -3 15 4 -14
14 -74 18 -180 11z"/>
<path d="M954 548 c-3 -4 19 -8 48 -7 57 1 55 5 -5 11 -21 2 -40 0 -43 -4z"/>
<path d="M2075 550 l-60 -6 69 -4 c37 -3 72 -2 78 1 16 10 -24 14 -87 9z"/>
<path d="M1085 540 c-22 -6 -12 -7 37 -6 36 0 64 4 61 9 -5 9 -57 7 -98 -3z"/>
<path d="M2010 441 c-20 -4 17 -7 88 -8 68 -1 122 0 120 2 -7 8 -174 12 -208
6z"/>
<path d="M843 433 c31 -2 83 -2 115 0 31 2 5 3 -58 3 -63 0 -89 -1 -57 -3z"/>
<path d="M1078 433 c17 -2 47 -2 65 0 17 2 3 4 -33 4 -36 0 -50 -2 -32 -4z"/>
<path d="M1200 429 c34 -10 148 -11 153 -1 3 4 -36 7 -87 8 -51 0 -80 -3 -66
-7z"/>
<path d="M2625 407 c-6 -21 -10 -22 -91 -19 -59 2 -84 0 -79 -8 4 -7 -9 -8
-42 -4 -26 4 -59 7 -73 6 -88 -3 -315 -1 -426 4 -82 4 -133 3 -137 -3 -4 -6
-29 -7 -68 -1 -50 7 -434 5 -434 -2 0 -1 -8 -3 -17 -5 -10 -2 -18 2 -18 8 0 8
-4 7 -12 -1 -7 -7 -17 -12 -23 -12 -5 0 -3 5 5 11 11 8 6 9 -20 5 -69 -11
-172 -13 -158 -4 8 6 1 7 -21 2 -19 -3 -61 -6 -95 -5 -324 8 -527 6 -537 -5
-9 -11 208 -13 1123 -13 l1133 -1 2 35 c2 40 -4 46 -12 12z"/>
</g>
</svg>
