 <svg version="1.0" xmlns="http://www.w3.org/2000/svg"  width="300.000000pt" height="300.000000pt" viewBox="0 0 300.000000 300.000000"  preserveAspectRatio="xMidYMid meet">  <g transform="translate(0.000000,300.000000) scale(0.100000,-0.100000)" fill="#000000" stroke="none"> <path d="M721 2303 c-72 -37 -70 -21 -74 -488 -2 -231 -1 -520 2 -642 l6 -223 33 -32 32 -33 186 -5 185 -5 18 -53 c10 -29 33 -69 51 -87 49 -51 84 -59 188 -45 195 25 270 29 562 26 331 -3 340 -2 378 51 28 39 44 107 36 148 -3 19 -20 56 -37 81 l-30 46 117 392 c64 215 117 406 116 424 0 25 -9 43 -34 68 -32 32 -38 34 -100 34 -77 0 -86 10 -86 89 0 44 -5 56 -34 89 l-34 37 -408 5 -407 5 -31 44 c-62 88 -54 86 -344 89 -230 2 -261 1 -291 -15z m562 -43 c13 -11 35 -39 47 -62 12 -24 27 -46 34 -50 6 -4 192 -8 414 -8 l404 0 29 -29 c27 -28 29 -34 29 -110 l0 -81 90 0 c77 0 93 -3 110 -20 11 -11 20 -27 20 -36 0 -8 -56 -201 -125 -429 l-124 -414 34 -34 c54 -54 59 -148 11 -204 l-23 -27 -354 -1 c-241 -1 -386 -5 -454 -15 -156 -21 -198 -20 -230 10 -41 38 -57 77 -53 126 l3 44 -202 0 c-199 0 -202 0 -230 24 l-28 24 0 632 0 632 28 24 28 24 258 0 c243 0 260 -1 284 -20z"/> <path d="M737 2238 c-15 -12 -17 -70 -19 -625 -2 -336 -2 -611 -2 -610 1 1 20 66 43 144 l41 142 0 371 c0 334 2 371 16 368 14 -3 16 -38 14 -318 0 -173 2 -312 5 -309 3 3 12 32 20 63 12 44 15 120 15 326 l0 270 605 0 605 0 0 -30 c0 -28 2 -30 40 -30 40 0 40 0 40 -40 0 -35 3 -40 23 -40 23 0 24 1 19 83 -3 59 -8 85 -20 95 -12 9 -111 12 -417 12 -448 0 -425 -4 -463 74 -13 25 -32 51 -42 56 -29 15 -502 13 -523 -2z m488 -34 c22 -5 78 -88 68 -98 -4 -3 -100 -6 -213 -6 -172 0 -210 -3 -220 -15 -7 -8 -20 -15 -28 -15 -9 0 -29 -12 -44 -27 l-28 -27 0 91 c0 64 4 93 13 96 17 7 427 8 452 1z"/> <path d="M901 1823 c1 -250 18 -243 28 12 l6 160 558 3 c486 2 557 4 557 17 0 13 -72 15 -575 15 l-575 0 1 -207z"/> <path d="M961 1898 c0 -70 1 -71 13 -39 23 64 -4 61 603 61 l553 0 0 25 0 25 -585 0 -585 0 1 -72z"/> <path d="M1019 1874 c-8 -9 -73 -213 -145 -453 -95 -315 -129 -441 -122 -453 8 -16 28 -18 207 -18 l198 0 23 25 c38 40 72 44 210 22 181 -28 534 -30 678 -3 86 16 106 23 113 40 5 12 63 202 129 424 96 319 119 407 109 418 -10 12 -117 14 -699 14 -621 0 -689 -2 -701 -16z m1361 -37 c0 -24 -228 -769 -238 -779 -41 -41 -433 -61 -642 -33 -69 9 -158 19 -198 22 -69 5 -75 4 -123 -26 l-50 -31 -164 0 c-92 0 -166 4 -170 9 -5 10 228 798 246 834 9 16 52 17 674 17 545 0 665 -2 665 -13z"/> <path d="M1960 1744 c-78 -21 -145 -55 -246 -127 -86 -61 -164 -147 -164 -181 0 -21 -85 -113 -122 -132 -32 -16 -49 -46 -71 -122 l-16 -53 28 -31 27 -31 69 23 c41 14 77 33 90 48 60 73 128 130 163 137 59 11 117 51 216 148 68 68 100 109 124 159 46 95 50 123 22 153 -27 28 -43 30 -120 9z m105 -34 c4 -6 -14 -53 -40 -106 -32 -66 -55 -100 -75 -113 -17 -10 -27 -20 -25 -23 10 -10 -154 -139 -187 -148 -18 -5 -52 -14 -75 -20 -30 -7 -43 -16 -43 -28 0 -23 -19 -42 -40 -42 -10 0 -23 -16 -32 -39 -14 -35 -21 -41 -83 -61 -87 -29 -94 -22 -65 65 20 59 26 68 59 81 25 10 40 24 48 44 8 22 18 30 36 30 22 0 26 6 37 60 10 47 17 60 31 60 12 0 19 7 19 19 0 22 157 144 177 137 6 -3 14 3 17 12 13 39 223 101 241 72z"/> <path d="M1937 1664 c-67 -22 -81 -30 -104 -64 -27 -42 -38 -49 -45 -28 -3 8 -27 -4 -65 -32 -50 -37 -64 -53 -74 -87 -6 -24 -17 -43 -24 -43 -11 0 -35 -48 -35 -68 0 -2 36 29 80 68 95 85 261 220 271 220 27 0 9 -26 -54 -76 -79 -63 -277 -235 -277 -239 0 -2 25 5 55 16 30 10 61 19 68 19 8 0 44 24 80 53 55 46 62 55 48 64 -14 10 -11 13 19 26 19 8 42 17 51 20 13 4 99 153 99 171 0 9 -8 7 -93 -20z"/> <path d="M1530 1312 c0 -10 43 -52 53 -52 14 0 7 27 -11 43 -20 18 -42 22 -42 9z"/> <path d="M1480 1254 c-24 -10 -40 -25 -48 -46 -16 -43 -10 -45 21 -8 14 16 30 30 36 30 21 0 11 -24 -21 -51 l-33 -28 37 11 c28 8 40 20 53 49 16 34 14 60 -3 58 -4 0 -23 -7 -42 -15z"/> <path d="M2127 975 c-154 -43 -525 -47 -734 -9 l-32 6 20 -38 c23 -45 20 -108 -8 -150 -16 -26 -16 -26 2 -21 24 7 217 24 380 32 66 4 194 1 284 -5 163 -11 163 -11 187 11 45 42 40 140 -9 174 -24 17 -25 17 -90 0z m87 -68 c8 -21 7 -35 -5 -55 -13 -24 -20 -27 -64 -25 -159 5 -542 2 -610 -5 -44 -5 -86 -7 -92 -4 -14 4 -17 69 -5 89 5 8 30 9 97 1 116 -13 460 -3 545 16 95 21 122 17 134 -17z"/> <path d="M1217 969 c-24 -14 -47 -62 -47 -101 0 -44 31 -92 70 -108 43 -18 90 5 114 54 17 36 19 77 4 76 -5 0 -26 0 -48 0 -39 0 -40 -1 -40 -35 0 -24 -5 -35 -15 -35 -10 0 -15 10 -15 34 0 58 7 66 61 66 54 0 60 9 27 40 -24 22 -81 27 -111 9z"/> </g> </svg> 